<svg xmlns="http://www.w3.org/2000/svg" width="200" height="200" viewBox="0 0 24 24" fill="none">
  <path fill="#FFFFFF" d="M12 0C5.373 0 0 5.373 0 12c0 5.302 3.438 9.8 8.207 11.394.6.111.828-.262.828-.586 0-.288-.011-1.052-.017-2.068-3.338.726-4.04-1.607-4.04-1.607-.546-1.38-1.335-1.748-1.335-1.748-1.09-.744.083-.73.083-.73 1.205.085 1.839 1.247 1.839 1.247 1.068 1.831 2.804 1.3 3.49.996.107-.776.419-1.3.763-1.598-2.664-.307-5.467-1.332-5.467-5.918 0-1.31.468-2.382 1.239-3.221-.125-.303-.537-1.53.118-3.19 0 0 1.008-.321 3.301 1.23A11.497 11.497 0 0 1 12 5.36a11.48 11.48 0 0 1 2.755-.374c2.293-1.551 3.301-1.23 3.301-1.23.656 1.66.244 2.887.118 3.19.771.839 1.239 1.911 1.239 3.221 0 4.596-2.804 5.61-5.47 5.917.43.372.818.992.818 1.91 0 1.383-.014 2.5-.014 2.835 0 .327.228.701.832.586C20.562 21.8 24 17.302 24 12c0-6.627-5.373-12-12-12z"/>
</svg>
